<?xml version="1.0" encoding="UTF-8"?>
<svg width="61px" height="31px" viewBox="0 0 61 31" version="1.1" xmlns="http://www.w3.org/2000/svg" xmlns:xlink="http://www.w3.org/1999/xlink">
    <!-- Generator: Sketch 58 (84663) - https://sketch.com -->
    <title>powered-by-mysql</title>
    <desc>Created with Sketch.</desc>
    <g id="Page-1" stroke="none" stroke-width="1" fill="none" fill-rule="evenodd">
        <g id="Desktop-HD" transform="translate(-1247.000000, -840.000000)">
            <g id="side-bar" transform="translate(1048.000000, 0.000000)">
                <g id="portfolio-website" transform="translate(31.000000, 741.000000)">
                    <g id="powered-by-mysql" transform="translate(168.000000, 99.000000)">
                        <path d="M0.266722772,28.2112277 L2.23752475,28.2112277 L2.23752475,20.4288465 L5.28856931,27.2132426 C5.64859901,28.0344356 6.14122277,28.3249455 7.10774752,28.3249455 C8.07427228,28.3249455 8.54786634,28.0344356 8.9080495,27.2132426 L11.9589406,20.4288465 L11.9589406,28.2112277 L13.9297426,28.2112277 L13.9297426,20.4415842 C13.9297426,19.6834653 13.626495,19.3171436 13.0011238,19.1276139 C11.5040693,18.6601584 10.4997921,19.0643861 10.0450743,20.0751089 L7.05081188,26.7711089 L4.15154455,20.0751089 C3.71570297,19.0643861 2.69239604,18.6601584 1.19534158,19.1276139 C0.569970297,19.3171436 0.266722772,19.6834653 0.266722772,20.4415842 L0.266722772,28.2112277" id="Fill-1" fill="#005D7B"></path>
                        <path d="M15.568599,21.8766386 L17.5386337,21.8766386 L17.5386337,26.1643069 C17.5202178,26.3971139 17.6135248,26.9439109 18.6928465,26.9607921 C19.2437871,26.9695396 22.9439901,26.9607921 22.9786733,26.9607921 L22.9786733,21.8559208 L24.9533119,21.8559208 C24.9625198,21.8559208 24.9513168,28.8177228 24.9514703,28.8473416 C24.9625198,30.5643119 22.8210644,30.9372327 21.8341287,30.9660842 L15.6112624,30.9660842 L15.6112624,29.6401436 C15.6221584,29.6401436 21.8295248,29.6416782 21.8450248,29.6399901 C23.1135693,29.5060149 22.9637871,28.8755792 22.9636337,28.6633366 L22.9636337,28.1464653 L18.774797,28.1464653 C16.8259406,28.1285099 15.5848663,27.2778515 15.5695198,26.2995099 C15.5681386,26.2088119 15.6115693,21.9196089 15.568599,21.8766386" id="Fill-2" fill="#005D7B"></path>
                        <path d="M26.4721584,28.2112277 L32.1382525,28.2112277 C32.8013762,28.2112277 33.4457772,28.0723416 33.9574307,27.8321683 C34.8100842,27.4406782 35.2270495,26.909995 35.2270495,26.215104 L35.2270495,24.7748317 C35.2270495,24.206396 34.753302,23.6757129 33.8246832,23.3219752 C33.3320594,23.1324455 32.7255644,23.0314653 32.1382525,23.0314653 L29.7504851,23.0314653 C28.9546139,23.0314653 28.5755545,22.7914455 28.4808663,22.2607624 C28.4618366,22.1975347 28.4618366,22.1470446 28.4618366,22.0839703 L28.4618366,21.1869653 C28.4618366,21.1364752 28.4618366,21.0858317 28.4808663,21.022604 C28.5755545,20.6183762 28.7839604,20.5046584 29.4851436,20.4415842 C29.5420792,20.4415842 29.6177376,20.4288465 29.6746733,20.4288465 L35.3028614,20.4288465 L35.3028614,19.1150297 L29.7693614,19.1150297 C28.9734901,19.1150297 28.5566782,19.1655198 28.1776188,19.2792376 C27.0026881,19.6455594 26.4910347,20.2267327 26.4910347,21.2374554 L26.4910347,22.3870644 C26.4910347,23.2714851 27.4954653,24.0294505 29.1820495,24.206396 C29.3714257,24.2189802 29.5609554,24.2315644 29.7504851,24.2315644 L31.797099,24.2315644 C31.8729109,24.2315644 31.9487228,24.2315644 32.005505,24.244302 C32.6308762,24.2947921 32.8962178,24.4085099 33.0855941,24.6359455 C33.1994653,24.7496634 33.2372178,24.8633812 33.2372178,24.9896832 L33.2372178,26.1392921 C33.2372178,26.2783317 33.1425297,26.4551238 32.953,26.6067475 C32.7825,26.7583713 32.4981287,26.859505 32.1192228,26.8846733 C32.0434109,26.8846733 31.9866287,26.8972574 31.9108168,26.8972574 L26.4721584,26.8972574 L26.4721584,28.2112277" id="Fill-3" fill="#D8872A"></path>
                        <path d="M47.5214653,25.9245941 C47.5214653,27.2763168 48.525896,28.0344356 50.5534802,28.1860594 C50.7430099,28.1986436 50.9323861,28.2112277 51.1219158,28.2112277 L56.2574802,28.2112277 L56.2574802,26.8972574 L51.0841634,26.8972574 C49.9281089,26.8972574 49.4922673,26.6067475 49.4922673,25.9120099 L49.4922673,19.1150297 L47.5214653,19.1150297 L47.5214653,25.9245941" id="Fill-4" fill="#D8872A"></path>
                        <path d="M36.4848515,25.9935 L36.4848515,21.3094307 C36.4848515,20.1193069 37.3204703,19.3977129 38.9725248,19.1698168 C39.1433317,19.1446485 39.3333218,19.1319109 39.5041287,19.1319109 L43.245,19.1319109 C43.4349901,19.1319109 43.605797,19.1446485 43.7957871,19.1698168 C45.4478416,19.3977129 46.2833069,20.1193069 46.2833069,21.3094307 L46.2833069,25.9935 C46.2833069,26.9589505 45.928495,27.4756683 45.1108317,27.8122178 L47.0520149,29.5646386 L44.7635396,29.5646386 L43.1931287,28.1469257 L41.6119752,28.2469851 L39.5041287,28.2469851 C39.1433317,28.2469851 38.7636584,28.1963416 38.3457723,28.0824703 C37.0925743,27.7405495 36.4848515,27.0823366 36.4848515,25.9935 Z M38.6118812,25.8796287 C38.6118812,25.9428564 38.6309109,26.0062376 38.6499406,26.082203 C38.7638119,26.6265446 39.2765396,26.9304059 40.0550693,26.9304059 L41.8455495,26.9304059 L40.2008614,25.4456287 L42.4891832,25.4456287 L43.9236238,26.7405693 C44.1878911,26.5995347 44.3619208,26.3840693 44.4226931,26.1075248 C44.4415693,26.0441436 44.4415693,25.9809158 44.4415693,25.9175347 L44.4415693,21.423302 C44.4415693,21.3726584 44.4415693,21.3094307 44.4226931,21.2460495 C44.3086683,20.7396139 43.7959406,20.4484901 43.0364406,20.4484901 L40.0550693,20.4484901 C39.181698,20.4484901 38.6118812,20.8283168 38.6118812,21.423302 L38.6118812,25.8796287 L38.6118812,25.8796287 Z" id="Fill-5" fill="#D8872A"></path>
                        <path d="M57.9913317,16.9355149 C56.7800297,16.9025198 55.8546337,17.0151634 55.0633663,17.3489505 C54.8385396,17.4437921 54.4800446,17.4460941 54.4433663,17.7278564 C54.5670594,17.8573812 54.5860891,18.050901 54.6844604,18.210198 C54.8730693,18.515901 55.1921238,18.9255 55.4766485,19.140198 C55.7877228,19.375 56.108005,19.6260693 56.4411782,19.8292574 C57.0341683,20.1908218 57.6962178,20.3972327 58.2669554,20.7592574 C58.603505,20.9727277 58.937599,21.2417525 59.2658614,21.4826931 C59.4280743,21.6016287 59.5371881,21.7870149 59.748203,21.861599 C59.748203,21.8500891 59.748203,21.8387327 59.748203,21.8272228 C59.6370941,21.6860347 59.608703,21.4920545 59.5069554,21.3448812 C59.3577871,21.1957129 59.2084653,21.0462376 59.0591436,20.8970693 C58.6214604,20.315896 58.0654554,19.8054703 57.4746139,19.3812921 C57.0034752,19.0432079 55.9490149,18.5863416 55.7522723,18.0378564 C55.7407624,18.0265 55.7292525,18.0149901 55.717896,18.0034802 C56.0518366,17.9658812 56.4430198,17.8449505 56.7511782,17.7623861 C57.2692772,17.6233465 57.7321287,17.6594109 58.2669554,17.5211386 C58.5080495,17.4522327 58.7491436,17.3833267 58.9902376,17.3144208 C58.9902376,17.2685347 58.9902376,17.2226485 58.9902376,17.1766089 C58.7199851,16.899297 58.5272327,16.5320545 58.2324257,16.2809851 C57.4611089,15.6243069 56.619198,14.9680891 55.7522723,14.4208317 C55.2714653,14.1172772 54.6772475,13.9200743 54.1677426,13.6630198 C53.9963218,13.5764653 53.6952228,13.5316535 53.5821188,13.387396 C53.3143218,13.0460891 53.1685297,12.6136238 52.9621188,12.2161485 C52.5296535,11.383599 52.1050149,10.4741634 51.7219653,9.59818317 C51.4607673,9.00074257 51.2899604,8.41158911 50.9641535,7.87568812 C49.4001881,5.30406931 47.7163663,3.75192079 45.1080693,2.22632178 C44.5534455,1.90174257 43.885104,1.77359901 43.1791634,1.60632178 C42.8002574,1.58330198 42.421198,1.56028218 42.0422921,1.53741584 C41.8110198,1.44057921 41.5703861,1.15774257 41.3533861,1.02069802 C40.4893762,0.474668317 38.2730297,-0.712539604 37.6330792,0.848356436 C37.2291584,1.83360396 38.2371188,2.79506436 38.5976089,3.29413366 C38.8506733,3.64449505 39.1746386,4.03721287 39.3554208,4.43100495 C39.4743564,4.68990099 39.4949208,4.94941089 39.5966683,5.22334653 C39.8471238,5.8979802 40.0650446,6.63200495 40.3888564,7.25568812 C40.552604,7.57105941 40.7330792,7.90361881 40.9399505,8.18584158 C41.0670198,8.35879703 41.2844802,8.43506931 41.3190099,8.70255941 C41.106,9.00012871 41.0940297,9.46221287 40.9744802,9.83927723 C40.4361238,11.5367574 40.639005,13.6467525 41.4222921,14.9031733 C41.6627723,15.2888317 42.228599,16.1160099 43.0068218,15.798797 C43.6874406,15.5214851 43.5355099,14.6622327 43.7302574,13.9041139 C43.7744554,13.7322327 43.7472921,13.6059307 43.8335396,13.4908317 C43.8335396,13.5021881 43.8335396,13.513698 43.8335396,13.5252079 C44.0402574,13.9384901 44.2469752,14.3520792 44.4536931,14.7653614 C44.9127079,15.504297 45.726995,16.2766881 46.4171287,16.797703 C46.7750099,17.0681089 47.0567723,17.5354109 47.5194703,17.6934802 C47.5194703,17.6819703 47.5194703,17.6704604 47.5194703,17.6589505 C47.5079604,17.6589505 47.4964505,17.6589505 47.4849406,17.6589505 C47.3953168,17.5191436 47.2550495,17.4612871 47.1405644,17.3489505 C46.8709257,17.0845297 46.5712079,16.7559604 46.3482228,16.4533267 C45.7205495,15.6009802 45.1657723,14.6683713 44.6602574,13.6975495 C44.4190099,13.2339307 44.2093762,12.7224307 44.0057277,12.2506782 C43.9274604,12.0686683 43.9282277,11.7936584 43.7646337,11.6994307 C43.5419554,12.0451881 43.2136931,12.324802 43.0413515,12.7328663 C42.7657277,13.3855545 42.7301238,14.1812723 42.6279158,15.0064554 C42.5674505,15.0282475 42.5944604,15.0132079 42.5590099,15.0409851 C42.0792772,14.9251188 41.9106188,14.4312673 41.7322921,14.0075495 C41.2814109,12.935901 41.1976188,11.2104901 41.5944802,9.97708911 C41.697302,9.65803465 42.1610743,8.65283663 41.9735396,8.3580297 C41.8837624,8.06383663 41.5880347,7.89379703 41.4222921,7.66912376 C41.2174158,7.39119802 41.0128465,7.02533663 40.871198,6.70459406 C40.5021139,5.86882178 40.3296188,4.93099505 39.9410446,4.08647525 C39.7553515,3.68286139 39.4412079,3.27433663 39.1832327,2.91522772 C38.8976337,2.51759901 38.5778119,2.22494059 38.3565149,1.7439802 C38.2777871,1.5730198 38.1706683,1.29954455 38.2876089,1.1239802 C38.3247475,1.00550495 38.3772327,0.955935644 38.4943267,0.917262376 C38.6941386,0.763183168 39.250604,0.968519802 39.4588564,1.05507426 C40.0111782,1.28450495 40.4720347,1.5030396 40.9399505,1.81288614 C41.1647772,1.96190099 41.3917525,2.24980198 41.6633861,2.32960396 C41.7668218,2.32960396 41.870104,2.32960396 41.9735396,2.32960396 C42.4583366,2.4410198 43.001604,2.36428713 43.4546337,2.50194554 C44.2554158,2.74518812 44.9730198,3.12378713 45.6247871,3.53538119 C47.6104752,4.7890396 49.2335248,6.57368812 50.3441535,8.70255941 C50.5227871,9.04524752 50.5999802,9.37243564 50.7574356,9.73599505 C51.0749554,10.469099 51.4748861,11.2235347 51.7908713,11.9406782 C52.1060891,12.6558267 52.4131733,13.3777277 52.8586832,13.9730198 C53.0930248,14.2860891 53.997703,14.4538267 54.4088366,14.6275495 C54.697198,14.749401 55.1692574,14.8763168 55.4422723,15.0409851 C55.9637475,15.3552822 56.4689554,15.7298911 56.957896,16.0744208 C57.2023663,16.2466089 57.9538861,16.6241337 57.9913317,16.9355149" id="Fill-6" fill="#005D7B"></path>
                        <path d="M42.5935396,3.81085149 C42.3410891,3.80640099 42.1624554,3.83847525 41.9735396,3.87975743 C41.9735396,3.89126733 41.9735396,3.90277723 41.9735396,3.91428713 C41.984896,3.91428713 41.9964059,3.91428713 42.0079158,3.91428713 C42.1283861,4.16182673 42.3412426,4.32112376 42.490104,4.53428713 C42.604896,4.77538119 42.7198416,5.01662871 42.8346337,5.25772277 C42.8461436,5.24621287 42.8576535,5.23470297 42.8690099,5.22334653 C43.0824802,5.0729505 43.1800842,4.8324703 43.1791698,4.46538119 C43.0935297,4.3754505 43.0809455,4.26265347 43.0068218,4.15538119 C42.9081436,4.01250495 42.7178465,3.93116832 42.5935396,3.81085149" id="Fill-7" fill="#005D7B"></path>
                        <path d="M57.1827228,26.8599653 C57.1827228,27.7276584 57.8682525,28.3125149 58.6349653,28.3125149 C59.4019851,28.3125149 60.0873614,27.7276584 60.0873614,26.8599653 C60.0873614,25.9924257 59.4019851,25.4075693 58.6349653,25.4075693 C57.8682525,25.4075693 57.1827228,25.9924257 57.1827228,26.8599653 Z M59.7620149,26.8599653 C59.7620149,27.5183317 59.2586485,28.0103416 58.6349653,28.0103416 C58.0037624,28.0103416 57.5079158,27.5183317 57.5079158,26.8599653 C57.5079158,26.201599 58.0037624,25.7095891 58.6349653,25.7095891 C59.2586485,25.7095891 59.7620149,26.201599 59.7620149,26.8599653 Z M59.026302,27.6888317 L59.351495,27.6888317 L58.8751386,26.9607921 C59.1308119,26.9336287 59.3244851,26.8096287 59.3244851,26.5076089 C59.3244851,26.1707525 59.1114752,26.0312525 58.7009554,26.0312525 L58.054099,26.0312525 L58.054099,27.6888317 L58.3329455,27.6888317 L58.3329455,26.972302 L58.5924554,26.972302 L59.026302,27.6888317 Z M58.3329455,26.7401089 L58.3329455,26.263599 L58.654302,26.263599 C58.8209653,26.263599 59.0223119,26.294599 59.0223119,26.4882723 C59.0223119,26.7204653 58.840302,26.7401089 58.6311287,26.7401089 L58.3329455,26.7401089 L58.3329455,26.7401089 Z" id="Fill-8" fill="#D8872A"></path>
                        <path d="M0.434138478,15.8630458 L0.434138478,12.6042811 L1.3214913,12.6042811 C1.71489369,12.6042811 1.99746393,12.6707034 2.16921049,12.8035501 C2.34095706,12.9363968 2.42682905,13.1547466 2.42682905,13.4586059 C2.42682905,13.8050348 2.30939727,14.0765959 2.07453017,14.2732971 C1.83966307,14.4699982 1.51378986,14.5683474 1.09690076,14.5683474 L0.89212703,14.5683474 L0.89212703,15.8630458 L0.434138478,15.8630458 Z M0.89212703,14.2182504 L1.07928581,14.2182504 C1.35378674,14.2182504 1.5658979,14.1551308 1.71562568,14.0288897 C1.86535345,13.9026486 1.94021622,13.7242991 1.94021622,13.4938358 C1.94021622,13.2986025 1.88150032,13.1591522 1.76406677,13.0754808 C1.64663322,12.9918094 1.45066893,12.9499744 1.17616801,12.9499744 L0.89212703,12.9499744 L0.89212703,14.2182504 Z M3.87565822,15.9180925 C3.53363301,15.9180925 3.2606041,15.8046974 3.05656331,15.5779039 C2.85252252,15.3511103 2.75050365,15.0476225 2.75050365,14.6674314 C2.75050365,14.2828366 2.85288949,13.9786148 3.05766425,13.7547571 C3.262439,13.5308994 3.54023857,13.4189723 3.8910713,13.4189723 C4.24190403,13.4189723 4.5197036,13.5308994 4.72447835,13.7547571 C4.9292531,13.9786148 5.03163894,14.2813687 5.03163894,14.6630277 C5.03163894,15.0534942 4.92888613,15.3602848 4.72337742,15.5834085 C4.51786871,15.8065323 4.23529847,15.9180925 3.87565822,15.9180925 Z M3.88226383,15.592216 C4.34172259,15.592216 4.57144852,15.2824897 4.57144852,14.6630277 C4.57144852,14.0509053 4.34465838,13.7448487 3.8910713,13.7448487 C3.43895213,13.7448487 3.21289594,14.0523732 3.21289594,14.6674314 C3.21289594,15.2839576 3.43601634,15.592216 3.88226383,15.592216 Z M5.98724967,15.8630458 L5.30246871,13.4718171 L5.72742924,13.4718171 L6.25147384,15.3235881 L6.81735392,13.4718171 L7.25112193,13.4718171 L7.74654223,15.3235881 L8.34765221,13.4718171 L8.71976791,13.4718171 L7.94030662,15.8630458 L7.50433675,15.8630458 L6.9979071,14.0112748 L6.42542141,15.8630458 L5.98724967,15.8630458 Z M10.937049,15.7859804 C10.646401,15.8740556 10.3975924,15.9180925 10.1906158,15.9180925 C9.83831511,15.9180925 9.5509742,15.8010277 9.32858442,15.5668945 C9.10619464,15.3327614 8.99500141,15.0292736 8.99500141,14.6564221 C8.99500141,14.293846 9.09298356,13.9965968 9.28895079,13.7646655 C9.48491803,13.5327343 9.7355615,13.4167704 10.0408887,13.4167704 C10.3300688,13.4167704 10.5535562,13.5195232 10.7113575,13.7250319 C10.8691589,13.9305406 10.9480584,14.2226522 10.9480584,14.6013754 L10.9458565,14.7356893 L9.43757689,14.7356893 C9.50069742,15.3037741 9.77886397,15.5878123 10.2720849,15.5878123 C10.452639,15.5878123 10.6742915,15.5393717 10.937049,15.442489 L10.937049,15.7859804 Z M9.4573937,14.4098129 L10.5120885,14.4098129 C10.5120885,13.9650333 10.3462161,13.7426469 10.0144663,13.7426469 C9.68124862,13.7426469 9.4955596,13.9650333 9.4573937,14.4098129 Z M11.6966935,15.8630458 L11.6966935,13.4718171 L12.1304615,13.4718171 L12.1304615,13.9209982 C12.3022081,13.5863126 12.5517506,13.4189723 12.8790966,13.4189723 C12.9231342,13.4189723 12.969373,13.422642 13.0178143,13.4299816 L13.0178143,13.8351253 C12.9429504,13.8101707 12.876895,13.7976936 12.8196462,13.7976936 C12.5451453,13.7976936 12.3154193,13.9606302 12.1304615,14.2865083 L12.1304615,15.8630458 L11.6966935,15.8630458 Z M15.2945459,15.7859804 C15.0038978,15.8740556 14.7550892,15.9180925 14.5481126,15.9180925 C14.195812,15.9180925 13.9084711,15.8010277 13.6860813,15.5668945 C13.4636915,15.3327614 13.3524983,15.0292736 13.3524983,14.6564221 C13.3524983,14.293846 13.4504804,13.9965968 13.6464476,13.7646655 C13.8424149,13.5327343 14.0930583,13.4167704 14.3983856,13.4167704 C14.6875657,13.4167704 14.9110531,13.5195232 15.0688544,13.7250319 C15.2266557,13.9305406 15.3055552,14.2226522 15.3055552,14.6013754 L15.3033533,14.7356893 L13.7950737,14.7356893 C13.8581943,15.3037741 14.1363608,15.5878123 14.6295817,15.5878123 C14.8101358,15.5878123 15.0317883,15.5393717 15.2945459,15.442489 L15.2945459,15.7859804 Z M13.8148905,14.4098129 L14.8695853,14.4098129 C14.8695853,13.9650333 14.7037129,13.7426469 14.3719632,13.7426469 C14.0387455,13.7426469 13.8530565,13.9650333 13.8148905,14.4098129 Z M17.5888924,15.8630458 L17.5888924,15.4138647 C17.412742,15.7500182 17.1470526,15.9180925 16.7918161,15.9180925 C16.5041039,15.9180925 16.2776808,15.8131378 16.1125398,15.6032253 C15.9473989,15.3933129 15.8648297,15.1063389 15.8648297,14.7422949 C15.8648297,14.3444888 15.9584081,14.0244872 16.1455679,13.7822805 C16.3327276,13.5400738 16.5789674,13.4189723 16.8842946,13.4189723 C17.167603,13.4189723 17.4024666,13.5275967 17.5888924,13.7448487 L17.5888924,12.3862961 L18.0248622,12.3862961 L18.0248622,15.8630458 L17.5888924,15.8630458 Z M17.5888924,14.0421009 C17.3643007,13.8439318 17.1514556,13.7448487 16.9503506,13.7448487 C16.5349295,13.7448487 16.327222,14.0626485 16.327222,14.6982576 C16.327222,15.2575349 16.512177,15.5371693 16.8820927,15.5371693 C17.1228315,15.5371693 17.358429,15.4057925 17.5888924,15.1430349 L17.5888924,14.0421009 Z M20.3192087,15.8894682 L20.3192087,12.3862961 L20.7529767,12.3862961 L20.7529767,13.9209982 C20.930595,13.5863126 21.1970183,13.4189723 21.5522548,13.4189723 C21.839967,13.4189723 22.0663902,13.5239269 22.2315311,13.7338394 C22.3966721,13.9437519 22.4792413,14.2307258 22.4792413,14.5947698 C22.4792413,14.991108 22.3856628,15.3107427 22.1985031,15.5536833 C22.0113434,15.796624 21.7651036,15.9180925 21.4597764,15.9180925 C21.1764679,15.9180925 20.9408704,15.8094681 20.7529767,15.592216 L20.7001319,15.8894682 L20.3192087,15.8894682 Z M20.7529767,15.292762 C20.9761005,15.492399 21.1889456,15.592216 21.3915185,15.592216 C21.8084076,15.592216 22.016849,15.2744162 22.016849,14.6388071 C22.016849,14.0780619 21.8318939,13.7976936 21.4619782,13.7976936 C21.2197715,13.7976936 20.9834401,13.9290704 20.7529767,14.1918279 L20.7529767,15.292762 Z M23.2961343,16.7327837 L23.6836631,15.8630458 L22.7588785,13.4718171 L23.2278764,13.4718171 L23.9126574,15.2729451 L24.6436776,13.4718171 L25.053225,13.4718171 L23.7475173,16.7327837 L23.2961343,16.7327837 Z" id="Poweredby" fill="#909190" fill-rule="nonzero"></path>
                    </g>
                </g>
            </g>
        </g>
    </g>
</svg>