<?xml version="1.0" encoding="UTF-8"?>
<svg width="50px" height="20px" viewBox="0 0 50 20" version="1.1" xmlns="http://www.w3.org/2000/svg" xmlns:xlink="http://www.w3.org/1999/xlink">
    <!-- Generator: Sketch 58 (84663) - https://sketch.com -->
    <title>apple_objectivec-icon</title>
    <desc>Created with Sketch.</desc>
    <g id="Page-1" stroke="none" stroke-width="1" fill="none" fill-rule="evenodd">
        <g id="Desktop-HD" transform="translate(-1125.000000, -493.000000)" fill="#F1592A" fill-rule="nonzero">
            <g id="side-bar" transform="translate(1048.000000, 0.000000)">
                <g id="mandarin" transform="translate(31.000000, 389.000000)">
                    <g id="apple_objectivec-icon" transform="translate(46.000000, 104.000000)">
                        <path d="M0.18,19.36 L0.18,0.665 L4.728,0.665 L4.728,2.34 L2.315,2.34 L2.315,17.718 L4.727,17.718 L4.727,19.393 L0.18,19.36 Z M15.615,9.828 C15.615,13.228 13.545,15.18 10.74,15.18 C7.935,15.18 6.066,12.994 6.066,10.004 C6.066,6.88 8.026,4.677 10.89,4.677 C13.754,4.677 15.614,6.972 15.614,9.827 L15.615,9.828 Z M8.027,9.978 C8.027,12.048 9.067,13.678 10.85,13.678 C12.633,13.678 13.656,12.003 13.656,9.892 C13.656,7.974 12.71,6.165 10.85,6.165 C8.99,6.165 8,7.927 8,10.02 L8.027,9.978 Z M17.2,5.03 C18.0906973,4.87622422 18.9931321,4.80060306 19.897,4.804 C20.912,4.704 21.933,4.931 22.812,5.449 C23.482,5.844 23.887,6.572 23.867,7.349 C23.8429866,8.36799707 23.1674853,9.25643257 22.192,9.552 C23.387,9.795 24.245,10.846 24.244,12.065 C24.2565865,12.876534 23.8951849,13.6487535 23.264,14.159 C22.544,14.796 21.346,15.105 19.494,15.105 C18.7325917,15.1087476 17.9717178,15.0639903 17.216,14.971 L17.2,5.03 Z M19.043,9.042 L19.989,9.042 C21.269,9.042 21.991,8.439 21.991,7.576 C21.991,6.713 21.271,6.176 20.091,6.176 C19.7376762,6.16392941 19.3840629,6.1890678 19.036,6.251 L19.043,9.042 Z M19.043,13.716 C19.369,13.75 19.696,13.764 20.023,13.758 C21.223,13.758 22.268,13.306 22.268,12.083 C22.268,10.86 21.246,10.408 19.965,10.408 L19.045,10.408 L19.043,13.716 Z M27.893,4.896 L29.743,4.896 L29.743,11.496 C29.743,14.302 28.386,15.24 26.393,15.24 C25.8599751,15.2355671 25.3311652,15.1450684 24.827,14.972 L25.053,13.472 C25.4245369,13.5879965 25.8108234,13.6499639 26.2,13.656 C27.255,13.656 27.875,13.17 27.875,11.411 L27.893,4.896 Z M35.013,10.399 L35.013,11.681 L31.16,11.681 L31.16,10.4 L35.013,10.399 Z M44,14.753 C43.167,15.085 42.274,15.239 41.378,15.205 C38.153,15.205 36.193,13.185 36.193,10.105 C36.1161431,8.64859444 36.6652552,7.22874846 37.7020478,6.20303639 C38.7388404,5.17732432 40.1645043,4.64349932 41.62,4.736 C42.4806624,4.70077861 43.3385528,4.85508281 44.133,5.188 L43.733,6.662 C43.1030525,6.39428558 42.4244289,6.26012716 41.74,6.268 C39.67,6.268 38.18,7.566 38.18,10.012 C38.18,12.24 39.495,13.682 41.723,13.682 C42.414776,13.6927594 43.1016749,13.564561 43.743,13.305 L44,14.753 Z M49.812,0.615 L49.812,19.36 L45.264,19.36 L45.264,17.685 L47.676,17.685 L47.676,2.3 L45.264,2.3 L45.264,0.625 L49.812,0.615 Z" id="Shape"></path>
                    </g>
                </g>
            </g>
        </g>
    </g>
</svg>